<?xml version="1.0" encoding="UTF-8"?>
<svg version="1.1" xmlns="http://www.w3.org/2000/svg" width="30" height="30">
<path d="M0 0 C1 1 1 1 1.33422852 3.24707031 C0.69550948 8.50798762 -3.94992073 11.72037866 -7.58764648 15.29443359 C-9.05296565 16.74059033 -10.4866632 18.21355073 -11.91992188 19.69140625 C-13.30727539 21.07392578 -13.30727539 21.07392578 -14.72265625 22.484375 C-15.56578369 23.32709961 -16.40891113 24.16982422 -17.27758789 25.03808594 C-20.55018966 27.39649575 -23.02027906 27.72661447 -27 28 C-26.61076221 22.33379735 -25.48636631 19.72656056 -21.484375 15.72265625 C-20.56269531 14.79775391 -19.64101563 13.87285156 -18.69140625 12.91992188 C-18.20816895 12.45126709 -17.72493164 11.9826123 -17.22705078 11.49975586 C-15.74834318 10.06088782 -14.30141691 8.59475421 -12.85546875 7.12304688 C-4.90839823 -0.73007357 -4.90839823 -0.73007357 0 0 Z M-3 2 C-2.34 2.66 -1.68 3.32 -1 4 C-1 3.34 -1 2.68 -1 2 C-1.66 2 -2.32 2 -3 2 Z " fill="#00A2FF" transform="translate(28,1)"/>
</svg>
